# xmcd CD database file
#
# Track frame offsets:
#	150
#	18237
#	31547
#	47247
#	62175
#	74305
#	91892
#	106077
#	121357
#	134765
#	145862
#	160007
#	176607
#	194005
#	208337
#	227787
#
# Disc length: 3332 seconds
#
# Revision: 1
# Processed by: cddbd v1.5.2PL0 Copyright (c) Steve Scherf et al.
# Submitted via: CDex 1.70beta2
#
DISCID=e40d0210
DTITLE=伊東ゆかり - 全曲集
DYEAR=1985
DGENRE=歌謡曲
TTITLE0=小指の想い出
TTITLE1=裸足の恋
TTITLE2=恋のしずく
TTITLE3=愛して愛して
TTITLE4=花のささやき
TTITLE5=朝のくちづけ
TTITLE6=淋しいから
TTITLE7=あなたの言った言葉
TTITLE8=知らなかったの
TTITLE9=この気持ちを
TTITLE10=朝を返して
TTITLE11=星を見ないで
TTITLE12=宿命の祈り
TTITLE13=愛の別れ
TTITLE14=青空のゆくえ
TTITLE15=結婚
EXTD=YEAR: 1985
EXTT0=
EXTT1=
EXTT2=
EXTT3=
EXTT4=
EXTT5=
EXTT6=
EXTT7=
EXTT8=
EXTT9=
EXTT10=
EXTT11=
EXTT12=
EXTT13=
EXTT14=
EXTT15=
PLAYORDER=
